<svg width="74" height="74" viewBox="0 0 74 74" fill="none" xmlns="http://www.w3.org/2000/svg">
<rect width="73.4893" height="73.4893" fill="#EDF1F4"/>
<path d="M50.3197 52.2593H23.1695C19.956 52.2593 17.3516 49.6548 17.3516 46.4414V27.0484C17.3516 23.8349 19.956 21.2305 23.1695 21.2305H50.3197C53.5331 21.2305 56.1376 23.8349 56.1376 27.0484V46.4414C56.1376 49.6548 53.5331 52.2593 50.3197 52.2593Z" fill="#1F293F"/>
<path d="M31.7407 37.9771L31.7409 37.9772C34.8213 39.8249 38.6678 39.8249 41.7482 37.9772L41.7484 37.9771L57.1503 28.7363L58.106 28.1629V27.0484C58.106 22.7478 54.6202 19.262 50.3197 19.262H23.1695C18.8689 19.262 15.3831 22.7478 15.3831 27.0484V28.1629L16.3388 28.7363L31.7407 37.9771Z" fill="#1F293F" stroke="#EDF1F4" stroke-width="3.93692"/>
</svg>
