<svg width="404" height="340" viewBox="0 0 404 340" fill="none" xmlns="http://www.w3.org/2000/svg">
<rect width="404" height="340" fill="#FFF6DE"/>
<rect x="74.2617" y="50.2123" width="242.761" height="246.563" rx="8.95833" fill="#1D263A"/>
<rect x="81.8639" y="44.8348" width="246.267" height="243.343" rx="8.39" fill="white" stroke="#1D263A" stroke-width="3.22"/>
<path d="M286.332 89.7178C286.332 91.1609 285.162 92.3308 283.719 92.3308H175.833C174.388 92.3308 173.218 91.1593 173.219 89.7151V89.7151C173.221 88.273 174.39 87.1047 175.833 87.1047H283.719C285.162 87.1047 286.332 88.2746 286.332 89.7178V89.7178Z" fill="#1D263A"/>
<path d="M162.275 94.1896C161.955 95.7002 161.484 97.1356 160.863 98.4959C160.79 98.6546 160.736 98.821 160.67 98.9827C160.579 99.2077 160.454 99.4106 160.329 99.6595C159.737 100.753 159.145 101.763 158.384 102.773C158.045 103.194 157.792 103.53 157.454 103.867C155.593 105.971 153.309 107.738 150.856 109C150.433 109.253 149.926 109.421 149.418 109.673C148.572 110.01 147.811 110.263 146.965 110.515C143.666 111.441 140.198 111.609 136.561 110.936C124.804 108.495 117.276 97.0508 119.644 85.3537C122.097 73.6566 133.601 66.1671 145.358 68.5233C149.503 69.3648 153.309 71.4686 156.354 74.4139C161.598 79.6314 163.797 87.0367 162.275 94.1896Z" fill="#FDCA49"/>
<path d="M136.609 93.9399C136.609 94.8135 136.869 95.6675 137.354 96.3938C137.839 97.1202 138.53 97.6863 139.337 98.0206C140.144 98.3549 141.033 98.4424 141.89 98.272C142.747 98.1015 143.534 97.6809 144.152 97.0631C144.77 96.4454 145.191 95.6584 145.361 94.8016C145.532 93.9448 145.444 93.0567 145.11 92.2496C144.775 91.4425 144.209 90.7527 143.482 90.2674C142.756 89.782 141.902 89.523 141.028 89.523C140.154 89.523 139.3 89.2639 138.573 88.7786C137.846 88.2932 137.28 87.6034 136.946 86.7963C136.611 85.9892 136.524 85.1011 136.694 84.2443C136.865 83.3875 137.286 82.6005 137.903 81.9828C138.521 81.3651 139.309 80.9444 140.166 80.774C141.023 80.6035 141.911 80.691 142.718 81.0253C143.526 81.3596 144.216 81.9257 144.701 82.6521C145.187 83.3785 145.446 84.2324 145.446 85.106" stroke="#1D263A" stroke-width="2.8" stroke-linecap="round" stroke-linejoin="round"/>
<path d="M141.025 77.7444V80.69" stroke="#1D263A" stroke-width="2.8" stroke-linecap="round" stroke-linejoin="round"/>
<path d="M141.025 98.3565V101.302" stroke="#1D263A" stroke-width="2.8" stroke-linecap="round" stroke-linejoin="round"/>
<path d="M273.814 139.596C273.814 141.039 272.644 142.209 271.201 142.209H175.832C174.388 142.209 173.218 141.037 173.219 139.593V139.593C173.221 138.151 174.39 136.983 175.832 136.983H271.201C272.644 136.983 273.814 138.153 273.814 139.596V139.596Z" fill="#1D263A"/>
<path d="M243.781 191.445C243.781 192.889 242.611 194.058 241.168 194.058H175.832C174.388 194.058 173.218 192.888 173.218 191.444V191.444C173.219 190.001 174.389 188.832 175.832 188.832H241.168C242.611 188.832 243.781 190.002 243.781 191.445V191.445Z" fill="#1D263A"/>
<path d="M290.783 243.295C290.783 244.738 289.613 245.908 288.17 245.908H175.833C174.388 245.908 173.218 244.736 173.22 243.292V243.292C173.221 241.85 174.391 240.682 175.833 240.682H288.17C289.613 240.682 290.783 241.852 290.783 243.295V243.295Z" fill="#1D263A"/>
<path d="M162.275 144.068C161.955 145.578 161.484 147.014 160.863 148.374C160.79 148.533 160.736 148.699 160.67 148.861C160.579 149.086 160.454 149.289 160.329 149.538C159.737 150.632 159.145 151.642 158.384 152.651C158.045 153.072 157.792 153.409 157.453 153.745C155.593 155.849 153.309 157.616 150.856 158.879C150.433 159.131 149.925 159.299 149.418 159.552C148.572 159.888 147.811 160.141 146.965 160.393C143.666 161.319 140.198 161.487 136.561 160.814C124.804 158.373 117.276 146.929 119.644 135.232C122.097 123.535 133.601 116.045 145.358 118.402C149.502 119.243 153.309 121.347 156.354 124.292C161.598 129.51 163.797 136.915 162.275 144.068Z" fill="#46A6FF"/>
<path d="M141.921 147.209C142.935 147.209 143.908 146.806 144.625 146.089C145.343 145.371 145.746 144.399 145.746 143.384C145.746 142.37 145.343 141.398 144.625 140.68C143.908 139.963 142.935 139.56 141.921 139.56C142.935 139.56 143.908 139.158 144.625 138.44C145.343 137.723 145.746 136.751 145.746 135.736C145.746 134.722 145.343 133.749 144.625 133.032C143.908 132.315 142.935 131.912 141.921 131.912H136.82V147.209H141.921Z" stroke="#1D263A" stroke-width="2.6" stroke-linecap="round" stroke-linejoin="round"/>
<path d="M136.82 139.561H142.239" stroke="#1D263A" stroke-width="2.6" stroke-linecap="round" stroke-linejoin="round"/>
<path d="M140.648 131.913V129.363" stroke="#1D263A" stroke-width="2.6" stroke-linecap="round" stroke-linejoin="round"/>
<path d="M140.648 149.759V147.209" stroke="#1D263A" stroke-width="2.6" stroke-linecap="round" stroke-linejoin="round"/>
<path d="M162.275 195.917C161.955 197.428 161.484 198.863 160.863 200.223C160.79 200.382 160.736 200.549 160.67 200.71C160.579 200.935 160.454 201.138 160.329 201.387C159.737 202.481 159.145 203.491 158.384 204.501C158.045 204.922 157.792 205.258 157.453 205.595C155.593 207.698 153.309 209.466 150.856 210.728C150.433 210.98 149.925 211.149 149.418 211.401C148.572 211.738 147.811 211.99 146.965 212.242C143.666 213.168 140.198 213.336 136.561 212.663C124.804 210.223 117.276 198.778 119.644 187.081C122.097 175.384 133.601 167.895 145.358 170.251C149.502 171.092 153.309 173.196 156.354 176.142C161.598 181.359 163.797 188.764 162.275 195.917Z" fill="#FDCA49"/>
<g clip-path="url(#clip0_2373_23648)">
<path d="M149.853 187.97L140.919 181.231L131.976 187.97C131.791 188.14 131.68 188.376 131.666 188.627V198.918C131.667 199.131 131.752 199.335 131.902 199.486C132.053 199.637 132.257 199.721 132.47 199.722H137.832V195.41C137.832 194.593 138.157 193.809 138.735 193.231C139.313 192.653 140.097 192.328 140.915 192.328C141.732 192.328 142.516 192.653 143.095 193.231C143.673 193.809 143.998 194.593 143.998 195.41V199.725H149.358C149.572 199.724 149.776 199.639 149.927 199.489C150.077 199.338 150.162 199.134 150.163 198.921V188.627C150.149 188.376 150.038 188.14 149.853 187.97Z" stroke="#1D263A" stroke-width="2.8" stroke-linecap="round" stroke-linejoin="round"/>
</g>
<path d="M162.275 247.767C161.955 249.277 161.484 250.713 160.863 252.073C160.79 252.232 160.736 252.398 160.67 252.56C160.579 252.785 160.454 252.988 160.329 253.237C159.737 254.331 159.145 255.341 158.384 256.35C158.045 256.771 157.792 257.108 157.453 257.444C155.593 259.548 153.309 261.315 150.856 262.578C150.433 262.83 149.925 262.998 149.418 263.251C148.572 263.587 147.811 263.84 146.965 264.092C143.666 265.018 140.198 265.186 136.561 264.513C124.804 262.072 117.276 250.628 119.644 238.931C122.097 227.234 133.601 219.744 145.358 222.101C149.502 222.942 153.309 225.046 156.354 227.991C161.598 233.209 163.797 240.614 162.275 247.767Z" fill="#46A6FF"/>
<path d="M131.912 246.69C131.748 246.514 131.666 246.278 131.666 245.984C131.666 245.691 131.748 245.445 131.912 245.246C132.075 245.047 132.29 244.948 132.558 244.948H134.343V242.156H132.558C132.29 242.156 132.075 242.067 131.912 241.89C131.748 241.712 131.666 241.476 131.666 241.183C131.666 240.891 131.748 240.645 131.912 240.445C132.075 240.246 132.29 240.147 132.558 240.147H134.343V238.617C134.343 236.297 134.944 234.599 136.144 233.522C137.346 232.444 138.943 231.906 140.934 231.906C142.925 231.906 144.536 232.416 145.769 233.435C146.999 234.456 147.616 235.789 147.616 237.439C147.616 237.892 147.512 238.211 147.308 238.396C147.103 238.582 146.774 238.674 146.323 238.674C145.46 238.674 145.03 238.386 145.03 237.809C145.03 236.778 144.68 235.928 143.983 235.259C143.283 234.59 142.289 234.254 140.996 234.254C138.285 234.254 136.931 235.71 136.931 238.621V240.147H141.488C141.734 240.147 141.949 240.246 142.135 240.445C142.319 240.645 142.412 240.879 142.412 241.152C142.412 241.444 142.319 241.686 142.135 241.874C141.949 242.062 141.734 242.156 141.488 242.156H136.931V244.949H141.488C141.713 244.949 141.924 245.053 142.119 245.262C142.314 245.471 142.412 245.712 142.412 245.984C142.412 246.256 142.319 246.486 142.135 246.674C141.949 246.862 141.734 246.957 141.488 246.957H136.931V248.186C136.931 249.414 137.27 250.413 137.948 251.182C138.625 251.951 139.651 252.335 141.026 252.335C142.299 252.335 143.283 252.001 143.983 251.33C144.68 250.66 145.03 249.77 145.03 248.656C145.03 248.08 145.46 247.79 146.323 247.79C146.773 247.79 147.102 247.885 147.308 248.073C147.512 248.261 147.616 248.596 147.616 249.076C147.616 250.74 146.999 252.09 145.768 253.127C144.536 254.166 142.924 254.684 140.934 254.684C138.902 254.684 137.295 254.125 136.116 253.007C134.935 251.888 134.344 250.282 134.344 248.189V246.958H132.559C132.291 246.957 132.076 246.869 131.912 246.69Z" fill="#1D263A"/>
<defs>
<clipPath id="clip0_2373_23648">
<rect width="22.1996" height="22.1928" fill="white" transform="translate(129.816 179.381)"/>
</clipPath>
</defs>
</svg>
