<svg width="404" height="340" viewBox="0 0 404 340" fill="none" xmlns="http://www.w3.org/2000/svg">
<rect width="404" height="340" fill="#FFF6DE"/>
<path d="M136.628 73.6282L95.3579 154.083C93.1464 158.394 94.849 163.681 99.161 165.892L283.132 260.205C287.444 262.415 292.733 260.712 294.944 256.401L336.215 175.946C338.426 171.634 336.724 166.347 332.412 164.137L148.44 69.8242C144.128 67.6137 138.84 69.3168 136.628 73.6282Z" fill="#1D263A"/>
<path d="M146.499 68.1463L105.229 148.601C103.017 152.913 104.72 158.2 109.032 160.41L293.004 254.723C297.315 256.933 302.604 255.23 304.815 250.919L346.086 170.464C348.297 166.152 346.595 160.865 342.283 158.655L158.311 64.3423C153.999 62.1318 148.711 63.8349 146.499 68.1463Z" fill="#FDCA49" stroke="#1D263A" stroke-width="4"/>
<path d="M154.344 72.2679L113.154 152.566L296.967 246.797L338.157 166.499L154.344 72.2679Z" fill="#F1A636"/>
<path d="M301.729 220.678L319.719 185.609C317.646 184.546 315.803 183.086 314.295 181.312C312.787 179.537 311.644 177.483 310.93 175.267C310.216 173.051 309.945 170.715 310.134 168.395C310.323 166.074 310.967 163.813 312.03 161.741L173.46 90.7021C171.314 94.8864 167.593 98.047 163.115 99.4885C158.638 100.93 153.771 100.534 149.585 98.3886L131.596 133.458C133.668 134.521 135.511 135.981 137.019 137.755C138.527 139.53 139.671 141.584 140.385 143.8C141.099 146.016 141.369 148.352 141.18 150.672C140.991 152.993 140.347 155.254 139.284 157.326L277.854 228.364C280.001 224.18 283.722 221.019 288.199 219.578C292.677 218.136 297.543 218.532 301.729 220.678Z" fill="#FDCA49"/>
<path d="M225.658 191.091C243.092 191.091 257.226 176.962 257.226 159.533C257.226 142.104 243.092 127.975 225.658 127.975C208.223 127.975 194.09 142.104 194.09 159.533C194.09 176.962 208.223 191.091 225.658 191.091Z" fill="#F1A636"/>
<path d="M212.2 178.081L214.676 173.255C210.808 171.08 207.45 168.203 205.785 165.938L210.601 160.901C212.919 163.912 215.863 166.384 219.229 168.148C222.586 169.868 225.456 169.929 226.498 167.896C227.488 165.966 226.229 163.781 222.523 160.277C217.16 155.218 214.164 150.474 216.692 145.547C218.985 141.077 224.434 139.444 231.282 141.607L233.757 136.78L239.528 139.742L237.235 144.212C241.102 146.387 243.387 148.457 244.914 150.266L240.262 155.13C239.017 153.788 236.908 151.23 232.668 149.056C228.84 147.095 226.874 147.882 226.144 149.304C225.285 150.981 226.798 153.104 230.97 157.295C236.883 163.021 238.277 167.264 235.931 171.836C233.612 176.356 227.922 178.315 220.629 175.86L217.971 181.04L212.2 178.081Z" fill="#8CCA0D"/>
<path d="M181.021 136.416C183.742 130.852 181.436 124.136 175.87 121.416C170.303 118.696 163.585 121.001 160.864 126.566C158.143 132.13 160.45 138.846 166.016 141.566C171.582 144.286 178.3 141.981 181.021 136.416Z" fill="#3C9C14"/>
<path d="M289.229 192.123C290.241 190.149 290.646 187.919 290.391 185.714C290.135 183.51 289.232 181.431 287.795 179.74C286.358 178.049 284.451 176.822 282.317 176.214C280.182 175.606 277.915 175.645 275.802 176.325C273.689 177.005 271.826 178.297 270.447 180.036C269.068 181.775 268.236 183.883 268.056 186.095C267.877 188.307 268.357 190.522 269.436 192.461C270.516 194.4 272.146 195.975 274.121 196.987C275.432 197.66 276.863 198.067 278.332 198.187C279.801 198.306 281.28 198.135 282.682 197.683C284.085 197.232 285.386 196.508 286.509 195.554C287.632 194.6 288.556 193.435 289.229 192.123Z" fill="#3C9C14"/>
<path d="M91.5186 112.742L69.5408 200.446C68.363 205.146 71.2185 209.91 75.9188 211.087L276.468 261.313C281.168 262.49 285.933 259.634 287.111 254.934L309.089 167.23C310.266 162.53 307.411 157.766 302.711 156.589L102.162 106.363C97.4615 105.186 92.6964 108.042 91.5186 112.742Z" fill="#1D263A"/>
<path d="M99.1963 109.453L77.2185 197.157C76.0407 201.857 78.8962 206.621 83.5965 207.798L284.145 258.024C288.846 259.201 293.611 256.345 294.789 251.645L316.766 163.941C317.944 159.241 315.089 154.477 310.388 153.3L109.839 103.075C105.139 101.897 100.374 104.753 99.1963 109.453Z" fill="#46A6FF" stroke="#1D263A" stroke-width="4"/>
<path d="M107.798 111.698L85.8379 199.228L286.204 249.467L308.164 161.937L107.798 111.698Z" fill="#3491E7"/>
<path d="M284.934 222.946L294.525 184.719C292.265 184.152 290.14 183.147 288.269 181.759C286.399 180.371 284.82 178.629 283.623 176.631C282.426 174.634 281.635 172.42 281.294 170.117C280.953 167.813 281.069 165.465 281.635 163.206L130.587 125.334C129.443 129.895 126.533 133.815 122.497 136.231C118.462 138.648 113.632 139.362 109.069 138.219L99.4785 176.446C101.738 177.012 103.863 178.018 105.733 179.405C107.604 180.793 109.182 182.535 110.379 184.533C111.576 186.53 112.368 188.744 112.709 191.047C113.05 193.35 112.933 195.698 112.367 197.957L263.416 235.83C264.56 231.269 267.47 227.349 271.506 224.933C275.541 222.517 280.371 221.802 284.934 222.946Z" fill="#46A6FF"/>
<path d="M219.323 202.897C231.651 190.573 231.651 170.591 219.323 158.267C206.995 145.943 187.007 145.943 174.679 158.267C162.351 170.591 162.351 190.573 174.679 202.897C187.007 215.222 206.995 215.222 219.323 202.897Z" fill="#3491E7"/>
<path d="M188.087 201.692L189.407 196.431C185.147 195.187 181.226 193.144 179.092 191.314L182.643 185.318C185.582 187.727 189.009 189.47 192.687 190.427C196.346 191.344 199.155 190.754 199.71 188.539C200.237 186.435 198.517 184.591 194.114 182.015C187.746 178.3 183.755 174.356 185.103 168.985C186.325 164.113 191.264 161.29 198.424 161.849L199.744 156.589L206.034 158.166L204.811 163.039C209.072 164.284 211.765 165.783 213.661 167.2L210.23 172.99C208.714 171.963 206.08 169.949 201.458 168.79C197.286 167.744 195.549 168.956 195.16 170.507C194.702 172.334 196.658 174.06 201.668 177.2C208.724 181.441 211.041 185.259 209.79 190.242C208.554 195.17 203.454 198.364 195.794 197.621L194.378 203.269L188.087 201.692Z" fill="#FDCA49"/>
<path d="M148.303 168.106C149.672 162.064 145.884 156.057 139.84 154.687C133.797 153.318 127.788 157.105 126.418 163.147C125.048 169.188 128.837 175.196 134.88 176.565C140.923 177.935 146.933 174.147 148.303 168.106Z" fill="#3491E7"/>
<path d="M266.298 197.957C266.838 195.805 266.728 193.541 265.98 191.451C265.233 189.362 263.883 187.54 262.101 186.218C260.318 184.896 258.183 184.131 255.967 184.022C253.75 183.912 251.55 184.462 249.646 185.603C247.741 186.743 246.218 188.422 245.268 190.428C244.319 192.433 243.985 194.675 244.31 196.871C244.635 199.066 245.604 201.115 247.094 202.76C248.585 204.404 250.529 205.57 252.682 206.11C255.569 206.834 258.626 206.382 261.179 204.853C263.733 203.324 265.574 200.843 266.298 197.957Z" fill="#3491E7"/>
<path d="M269.434 162.366H62.6818C57.8363 162.366 53.9082 166.294 53.9082 171.14V261.555C53.9082 266.401 57.8363 270.329 62.6818 270.329H269.434C274.279 270.329 278.207 266.401 278.207 261.555V171.14C278.207 166.294 274.279 162.366 269.434 162.366Z" fill="#1D263A"/>
<path d="M275.969 155.855H69.217C64.3714 155.855 60.4434 159.784 60.4434 164.629V255.045C60.4434 259.89 64.3714 263.818 69.217 263.818H275.969C280.815 263.818 284.743 259.89 284.743 255.045V164.629C284.743 159.784 280.815 155.855 275.969 155.855Z" fill="#FDCA49" stroke="#1D263A" stroke-width="4"/>
<path d="M275.878 164.716H69.3066V254.957H275.878V164.716Z" fill="#F1A636"/>
<path d="M268.192 229.543V190.131C265.863 190.131 263.556 189.672 261.405 188.781C259.253 187.89 257.298 186.584 255.651 184.938C254.004 183.291 252.697 181.337 251.806 179.185C250.915 177.034 250.456 174.729 250.456 172.4H94.7279C94.7279 174.729 94.2691 177.034 93.3778 179.185C92.4865 181.336 91.1801 183.291 89.5332 184.937C87.8863 186.584 85.9311 187.89 83.7793 188.781C81.6276 189.672 79.3213 190.131 76.9922 190.131V229.543C81.696 229.543 86.2071 231.411 89.5331 234.736C92.8592 238.061 94.7278 242.571 94.7279 247.273H250.456C250.456 242.571 252.325 238.061 255.651 234.736C258.977 231.411 263.488 229.543 268.192 229.543Z" fill="#FDCA49"/>
<path d="M172.593 241.395C190.028 241.395 204.161 227.266 204.161 209.837C204.161 192.408 190.028 178.279 172.593 178.279C155.159 178.279 141.025 192.408 141.025 209.837C141.025 227.266 155.159 241.395 172.593 241.395Z" fill="#F1A636"/>
<path d="M111.11 221.056C117.308 221.056 122.333 216.033 122.333 209.836C122.333 203.64 117.308 198.617 111.11 198.617C104.911 198.617 99.8867 203.64 99.8867 209.836C99.8867 216.033 104.911 221.056 111.11 221.056Z" fill="#F1A636"/>
<path d="M244.036 209.837C244.036 207.618 243.378 205.449 242.144 203.604C240.911 201.759 239.158 200.321 237.108 199.472C235.057 198.622 232.8 198.4 230.623 198.833C228.446 199.266 226.447 200.335 224.877 201.904C223.307 203.473 222.239 205.472 221.806 207.648C221.372 209.825 221.595 212.08 222.444 214.131C223.294 216.181 224.732 217.933 226.578 219.166C228.423 220.399 230.593 221.057 232.813 221.057C235.789 221.057 238.644 219.875 240.749 217.77C242.853 215.666 244.036 212.813 244.036 209.837V209.837Z" fill="#F1A636"/>
</svg>
