<svg width="404" height="340" viewBox="0 0 404 340" fill="none" xmlns="http://www.w3.org/2000/svg">
<rect width="404" height="340" fill="#FFF6DE"/>
<rect x="63.541" y="51.3602" width="271.609" height="249.51" rx="10" fill="#1D263A"/>
<rect x="71.2702" y="40.7393" width="268.389" height="252.406" rx="8.39" fill="white" stroke="#1D263A" stroke-width="3.22"/>
<rect x="199.346" y="111.292" width="13.4581" height="46.4774" rx="2" fill="#46A6FF"/>
<rect x="223.814" y="95.3916" width="13.4581" height="62.3776" rx="2" fill="#FDCA49"/>
<rect x="248.285" y="123.523" width="13.4581" height="34.2465" rx="2" fill="#FDCA49"/>
<rect x="272.754" y="106.399" width="13.4581" height="51.3698" rx="2" fill="#46A6FF"/>
<rect x="297.223" y="112.515" width="13.4581" height="45.2543" rx="2" fill="#FDCA49"/>
<path d="M160.196 126.58C160.196 143.805 146.228 157.769 128.997 157.769C111.767 157.769 97.7988 143.805 97.7988 126.58C97.7988 109.355 111.767 95.3916 128.997 95.3916C146.228 95.3916 160.196 109.355 160.196 126.58ZM117.648 126.58C117.648 132.846 122.729 137.926 128.997 137.926C135.265 137.926 140.346 132.846 140.346 126.58C140.346 120.314 135.265 115.235 128.997 115.235C122.729 115.235 117.648 120.314 117.648 126.58Z" fill="#46A6FF"/>
<path d="M128.997 157.769C123.825 157.769 118.734 156.484 114.182 154.028C109.631 151.573 105.761 148.025 102.921 143.704C100.082 139.382 98.3615 134.423 97.9152 129.272C97.4689 124.12 98.3107 118.939 100.365 114.194C102.419 109.449 105.621 105.288 109.682 102.087C113.744 98.8863 118.538 96.745 123.633 95.856C128.728 94.9671 133.965 95.3584 138.871 96.9947C143.777 98.631 148.199 101.461 151.74 105.23L137.27 118.814C135.982 117.443 134.374 116.413 132.589 115.818C130.804 115.223 128.899 115.08 127.046 115.404C125.193 115.727 123.449 116.506 121.971 117.671C120.494 118.835 119.329 120.348 118.582 122.075C117.834 123.801 117.528 125.686 117.691 127.559C117.853 129.433 118.479 131.237 119.512 132.809C120.545 134.381 121.952 135.672 123.608 136.565C125.264 137.458 127.116 137.926 128.997 137.926L128.997 157.769Z" fill="#FDCA49"/>
<rect x="97.7988" y="63.5911" width="96.6537" height="3.93835" rx="1.96917" fill="#1D263A"/>
<rect x="97.7988" y="191.881" width="150.486" height="3.93835" rx="1.96917" fill="#1D263A"/>
<rect x="97.7988" y="216.343" width="133.358" height="3.93835" rx="1.96917" fill="#1D263A"/>
<rect x="97.7988" y="240.939" width="163.944" height="3.93835" rx="1.96917" fill="#1D263A"/>
<rect x="97.7988" y="265.401" width="146.816" height="3.93835" rx="1.96917" fill="#1D263A"/>
<rect x="280.096" y="189.569" width="33.0336" height="8.56163" rx="4.28081" fill="#FDCA49"/>
<rect x="289.746" y="214.031" width="23.3825" height="8.56163" rx="4.28081" fill="#46A6FF"/>
<rect x="280.096" y="238.493" width="33.0336" height="8.56163" rx="4.28081" fill="#FDCA49"/>
<rect x="289.746" y="262.955" width="23.3825" height="8.56163" rx="4.28081" fill="#46A6FF"/>
<rect x="280.096" y="63.5911" width="30.5866" height="3.93835" rx="1.96917" fill="#1D263A"/>
</svg>
