<svg width="404" height="340" viewBox="0 0 404 340" fill="none" xmlns="http://www.w3.org/2000/svg">
<rect width="404" height="340" fill="#FFF6DE"/>
<path d="M59.5645 193.727V275.45" stroke="#1D263A" stroke-width="3.22498" stroke-miterlimit="10" stroke-linecap="round" stroke-linejoin="round"/>
<path d="M71.7223 259.392C71.7223 261.143 70.3029 262.562 68.552 262.562H46.3129C44.562 262.562 43.1426 261.142 43.1427 259.392L43.1439 209.785C43.1439 208.034 44.5633 206.615 46.3141 206.615H68.552C70.3029 206.615 71.7223 208.034 71.7223 209.785V259.392Z" fill="#1D263A"/>
<path d="M345.633 77.4409V159.164" stroke="#1D263A" stroke-width="3.22498" stroke-miterlimit="10" stroke-linecap="round" stroke-linejoin="round"/>
<path d="M358.009 144.023C358.009 145.774 356.59 147.193 354.839 147.193H332.6C330.849 147.193 329.43 145.774 329.43 144.023L329.431 92.582C329.431 90.8311 330.85 89.4117 332.601 89.4117H354.839C356.59 89.4117 358.009 90.8311 358.009 92.582V144.023Z" fill="#1D263A"/>
<path d="M107.088 109.658V219.501" stroke="#1D263A" stroke-width="3.22498" stroke-miterlimit="10" stroke-linecap="round" stroke-linejoin="round"/>
<path d="M119.437 206.05C119.437 207.801 118.018 209.221 116.267 209.221H94.0278C92.2768 209.221 90.8574 207.801 90.8575 206.05L90.8587 123.109C90.8588 121.358 92.2781 119.939 94.029 119.939H116.267C118.018 119.939 119.437 121.358 119.437 123.109V206.05Z" fill="#1D263A"/>
<path d="M154.633 159.452V255.235" stroke="#1D263A" stroke-width="3.22498" stroke-miterlimit="10" stroke-linecap="round" stroke-linejoin="round"/>
<path d="M167.152 240.326C167.152 242.077 165.733 243.496 163.982 243.496H141.743C139.992 243.496 138.572 242.077 138.572 240.326L138.574 174.362C138.574 172.611 139.993 171.192 141.744 171.192H163.982C165.733 171.192 167.152 172.611 167.152 174.362V240.326Z" fill="#1D263A"/>
<path d="M202.164 64.55V208.078" stroke="#1D263A" stroke-width="3.22498" stroke-miterlimit="10" stroke-linecap="round" stroke-linejoin="round"/>
<path d="M214.865 191.652C214.865 193.403 213.445 194.822 211.695 194.822H189.455C187.705 194.822 186.285 193.403 186.285 191.652L186.286 80.9762C186.286 79.2253 187.706 77.806 189.457 77.806H211.695C213.445 77.806 214.865 79.2254 214.865 80.9763V191.652Z" fill="#1D263A"/>
<path d="M249.697 65.7203V158.281" stroke="#1D263A" stroke-width="3.22498" stroke-miterlimit="10" stroke-linecap="round" stroke-linejoin="round"/>
<path d="M262.58 140.425C262.58 142.175 261.16 143.595 259.409 143.595H237.17C235.419 143.595 234 142.175 234 140.425L234.001 83.5772C234.001 81.8263 235.421 80.407 237.172 80.407H259.409C261.16 80.407 262.58 81.8264 262.58 83.5773V140.425Z" fill="#1D263A"/>
<path d="M297.221 105.556V176.734" stroke="#1D263A" stroke-width="3.22498" stroke-miterlimit="10" stroke-linecap="round" stroke-linejoin="round"/>
<path d="M308.802 159.836C308.802 161.587 307.383 163.006 305.632 163.006H283.393C281.642 163.006 280.223 161.587 280.223 159.836L280.224 122.453C280.224 120.703 281.643 119.283 283.394 119.283H305.632C307.383 119.283 308.802 120.703 308.802 122.453V159.836Z" fill="#1D263A"/>
<path d="M71.3977 257.589H49.1587C48.2362 257.589 47.4883 256.841 47.4884 255.918L47.4896 206.312C47.4896 205.39 48.2374 204.642 49.1599 204.642H71.3977C72.3202 204.642 73.068 205.39 73.068 206.312V255.918C73.068 256.841 72.3202 257.589 71.3977 257.589Z" fill="#46A6FF" stroke="#1D263A" stroke-width="3"/>
<path d="M357.685 142.22H335.446C334.523 142.22 333.775 141.472 333.775 140.55L333.777 89.1085C333.777 88.186 334.524 87.4382 335.447 87.4382H357.685C358.607 87.4382 359.355 88.186 359.355 89.1085V140.55C359.355 141.472 358.607 142.22 357.685 142.22Z" fill="#46A6FF" stroke="#1D263A" stroke-width="3"/>
<path d="M119.113 204.247H96.8735C95.951 204.247 95.2032 203.5 95.2032 202.577L95.2044 119.636C95.2044 118.713 95.9523 117.965 96.8747 117.965H119.113C120.035 117.965 120.783 118.713 120.783 119.636V202.577C120.783 203.5 120.035 204.247 119.113 204.247Z" fill="#FDCA49" stroke="#1D263A" stroke-width="3"/>
<path d="M166.827 238.523H144.588C143.666 238.523 142.918 237.775 142.918 236.853L142.919 170.889C142.919 169.966 143.667 169.219 144.59 169.219H166.827C167.75 169.219 168.498 169.966 168.498 170.889V236.853C168.498 237.775 167.75 238.523 166.827 238.523Z" fill="#46A6FF" stroke="#1D263A" stroke-width="3"/>
<path d="M214.54 189.849H192.301C191.379 189.849 190.631 189.101 190.631 188.179L190.632 77.5029C190.632 76.5804 191.38 75.8326 192.302 75.8326H214.54C215.463 75.8326 216.211 76.5805 216.211 77.5029V188.179C216.211 189.101 215.463 189.849 214.54 189.849Z" fill="#FDCA49" stroke="#1D263A" stroke-width="3"/>
<path d="M262.255 138.622H240.016C239.094 138.622 238.346 137.874 238.346 136.951L238.347 80.1039C238.347 79.1814 239.095 78.4337 240.017 78.4337H262.255C263.178 78.4337 263.925 79.1815 263.925 80.1039V136.951C263.925 137.874 263.178 138.622 262.255 138.622Z" fill="#46A6FF" stroke="#1D263A" stroke-width="3"/>
<path d="M308.48 158.033H286.241C285.318 158.033 284.57 157.285 284.57 156.363L284.572 118.98C284.572 118.058 285.319 117.31 286.242 117.31H308.48C309.402 117.31 310.15 118.058 310.15 118.98V156.363C310.15 157.285 309.402 158.033 308.48 158.033Z" fill="#FDCA49" stroke="#1D263A" stroke-width="3"/>
</svg>
