<svg width="404" height="340" viewBox="0 0 404 340" fill="none" xmlns="http://www.w3.org/2000/svg">
<rect width="404" height="340" fill="#FFF6DE"/>
<rect x="101.361" y="47.1654" width="196.499" height="252.327" rx="11.7553" fill="#1D263A"/>
<rect x="107.747" y="42.1176" width="193.279" height="250.841" rx="8.39" fill="white" stroke="#1D263A" stroke-width="3.22"/>
<rect x="127.098" y="58.8418" width="154.579" height="111.315" rx="10" fill="#FDCA49"/>
<path d="M191.859 127.025C191.859 129.502 192.594 131.924 193.971 133.984C195.348 136.044 197.304 137.649 199.594 138.597C201.883 139.545 204.403 139.793 206.833 139.31C209.263 138.826 211.496 137.633 213.248 135.882C215 134.13 216.194 131.898 216.677 129.469C217.161 127.039 216.913 124.52 215.964 122.232C215.016 119.943 213.41 117.987 211.35 116.61C209.289 115.234 206.867 114.5 204.389 114.5C201.911 114.5 199.488 113.765 197.428 112.389C195.367 111.012 193.761 109.056 192.813 106.767C191.865 104.479 191.617 101.96 192.1 99.5305C192.584 97.1008 193.777 94.8689 195.529 93.1172C197.281 91.3655 199.514 90.1726 201.944 89.6893C204.375 89.206 206.894 89.454 209.183 90.4021C211.473 91.3501 213.43 92.9555 214.806 95.0153C216.183 97.0751 216.918 99.4968 216.918 101.974" stroke="#1D263A" stroke-width="7.3" stroke-linecap="round" stroke-linejoin="round"/>
<path d="M204.381 81.0984V89.4487" stroke="#1D263A" stroke-width="7.3" stroke-linecap="round" stroke-linejoin="round"/>
<path d="M204.381 139.55V147.901" stroke="#1D263A" stroke-width="7.3" stroke-linecap="round" stroke-linejoin="round"/>
<rect x="126.098" y="193.18" width="119.209" height="3.99877" rx="1.99939" fill="#1D263A"/>
<rect x="126.098" y="215.173" width="86.4595" height="3.99877" rx="1.99939" fill="#1D263A"/>
<rect x="126.098" y="259.16" width="128.379" height="3.99877" rx="1.99939" fill="#1D263A"/>
<rect x="126.098" y="237.167" width="146.719" height="3.99877" rx="1.99939" fill="#1D263A"/>
</svg>
