<svg width="404" height="340" viewBox="0 0 404 340" fill="none" xmlns="http://www.w3.org/2000/svg">
<rect width="404" height="340" fill="#FFF6DE"/>
<path d="M159.958 199.433C198.192 199.433 229.188 168.447 229.188 130.225C229.188 92.0021 198.192 61.0165 159.958 61.0165C121.724 61.0165 90.7285 92.0021 90.7285 130.225C90.7285 168.447 121.724 199.433 159.958 199.433Z" fill="#1D263A"/>
<path d="M227.188 128.188C227.188 164.181 198.001 193.36 161.995 193.36C125.99 193.36 96.8027 164.181 96.8027 128.188C96.8027 92.1955 125.99 63.0165 161.995 63.0165C198.001 63.0165 227.188 92.1955 227.188 128.188Z" fill="white" stroke="#1D263A" stroke-width="4"/>
<path d="M161.997 183.678C192.653 183.678 217.504 158.835 217.504 128.188C217.504 97.5422 192.653 72.6986 161.997 72.6986C131.341 72.6986 106.49 97.5422 106.49 128.188C106.49 158.835 131.341 183.678 161.997 183.678Z" fill="#FDCA49"/>
<path d="M150.297 139.884C150.297 142.197 150.983 144.459 152.269 146.382C153.554 148.305 155.381 149.804 157.519 150.69C159.657 151.575 162.009 151.806 164.279 151.355C166.548 150.904 168.633 149.79 170.269 148.154C171.905 146.519 173.02 144.435 173.471 142.166C173.922 139.897 173.691 137.545 172.805 135.408C171.92 133.271 170.42 131.444 168.496 130.159C166.572 128.874 164.31 128.188 161.996 128.188C159.682 128.188 157.42 127.502 155.496 126.217C153.573 124.932 152.073 123.105 151.187 120.968C150.302 118.831 150.07 116.479 150.522 114.211C150.973 111.942 152.087 109.858 153.724 108.222C155.36 106.586 157.444 105.472 159.714 105.021C161.983 104.57 164.336 104.801 166.474 105.687C168.611 106.572 170.439 108.071 171.724 109.994C173.01 111.918 173.696 114.179 173.696 116.492" stroke="#1D263A" stroke-width="5.83844" stroke-linecap="round" stroke-linejoin="round"/>
<path d="M161.99 96.999V104.796" stroke="#1D263A" stroke-width="5.83844" stroke-linecap="round" stroke-linejoin="round"/>
<path d="M161.99 151.58V159.377" stroke="#1D263A" stroke-width="5.83844" stroke-linecap="round" stroke-linejoin="round"/>
<path d="M241.757 281.208C279.991 281.208 310.986 250.222 310.986 211.999C310.986 173.777 279.991 142.791 241.757 142.791C203.522 142.791 172.527 173.777 172.527 211.999C172.527 250.222 203.522 281.208 241.757 281.208Z" fill="#1D263A"/>
<path d="M308.986 209.963C308.986 245.956 279.799 275.135 243.794 275.135C207.789 275.135 178.602 245.956 178.602 209.963C178.602 173.97 207.789 144.791 243.794 144.791C279.799 144.791 308.986 173.97 308.986 209.963Z" fill="white" stroke="#1D263A" stroke-width="4"/>
<path d="M243.796 265.453C274.451 265.453 299.303 240.609 299.303 209.963C299.303 179.317 274.451 154.473 243.796 154.473C213.14 154.473 188.289 179.317 188.289 209.963C188.289 240.609 213.14 265.453 243.796 265.453Z" fill="#46A6FF"/>
<path d="M223.977 218.669C223.556 218.216 223.346 217.612 223.346 216.858C223.346 216.108 223.556 215.477 223.977 214.966C224.394 214.455 224.947 214.201 225.633 214.201H230.211V207.042H225.633C224.947 207.042 224.394 206.815 223.977 206.359C223.556 205.903 223.346 205.299 223.346 204.548C223.346 203.798 223.556 203.167 223.977 202.656C224.394 202.145 224.947 201.891 225.633 201.891H230.211V197.968C230.211 192.019 231.751 187.665 234.83 184.902C237.912 182.139 242.005 180.758 247.111 180.758C252.218 180.758 256.349 182.066 259.51 184.68C262.665 187.297 264.245 190.717 264.245 194.946C264.245 196.108 263.98 196.926 263.457 197.402C262.931 197.878 262.087 198.114 260.93 198.114C258.718 198.114 257.614 197.376 257.614 195.895C257.614 193.252 256.717 191.073 254.929 189.356C253.135 187.641 250.585 186.78 247.269 186.78C240.319 186.78 236.846 190.512 236.846 197.977V201.891H248.531C249.162 201.891 249.714 202.145 250.191 202.656C250.664 203.167 250.9 203.769 250.9 204.467C250.9 205.217 250.664 205.836 250.191 206.318C249.714 206.8 249.162 207.042 248.531 207.042H236.846V214.204H248.531C249.11 214.204 249.65 214.472 250.15 215.007C250.649 215.544 250.9 216.16 250.9 216.858C250.9 217.556 250.664 218.146 250.191 218.628C249.714 219.11 249.162 219.352 248.531 219.352H236.846V222.504C236.846 225.655 237.716 228.216 239.454 230.188C241.19 232.159 243.822 233.143 247.348 233.143C250.611 233.143 253.135 232.287 254.929 230.567C256.717 228.85 257.614 226.566 257.614 223.71C257.614 222.232 258.718 221.49 260.93 221.49C262.084 221.49 262.928 221.733 263.457 222.215C263.98 222.696 264.245 223.555 264.245 224.787C264.245 229.054 262.665 232.515 259.507 235.176C256.349 237.839 252.215 239.168 247.111 239.168C241.9 239.168 237.78 237.734 234.757 234.866C231.727 231.998 230.214 227.88 230.214 222.512V219.355H225.636C224.95 219.352 224.397 219.128 223.977 218.669Z" fill="#1D263A"/>
<path d="M250.27 67.7735L248.985 69.9976L251.436 69.2272C264.988 64.9665 279.505 66.5282 292.004 73.7418C316.208 87.7121 324.583 118.709 310.754 142.95C309.834 144.562 307.971 145.352 306.364 144.786C304.178 144.013 303.327 141.514 304.425 139.613C316.474 118.75 309.298 91.9776 288.428 79.9321C277.098 73.3922 263.818 72.2591 251.629 76.7109L249.617 77.4456L251.472 78.5161L257.349 81.9084C259.259 83.0106 259.768 85.619 258.237 87.38L258.237 87.3803C257.138 88.6452 255.172 88.9054 253.619 88.0087L239.246 79.7132C237.535 78.726 236.95 76.5404 237.937 74.831L239.462 72.1902L246.325 60.3069C247.427 58.3982 250.037 57.8893 251.799 59.42L251.799 59.4203C253.064 60.5188 253.324 62.484 252.428 64.0368L250.27 67.7735Z" fill="#1D263A" stroke="#FFF6DE" stroke-width="2"/>
<path d="M153.728 272.227L155.013 270.002L152.562 270.773C139.01 275.034 124.493 273.472 111.995 266.258C87.7898 252.288 79.4149 221.291 93.2439 197.05C94.1644 195.438 96.0269 194.648 97.634 195.214C99.8196 195.987 100.671 198.486 99.5733 200.387C87.524 221.25 94.6999 248.022 115.57 260.068C126.901 266.608 140.18 267.741 152.369 263.289L154.381 262.554L152.526 261.484L146.649 258.092C144.739 256.989 144.23 254.381 145.761 252.62L145.761 252.62C146.86 251.355 148.826 251.095 150.38 251.991L164.752 260.287C166.463 261.274 167.048 263.46 166.061 265.169L164.536 267.81L157.673 279.693C156.571 281.602 153.961 282.111 152.199 280.58L152.199 280.58C150.934 279.481 150.674 277.516 151.57 275.963L153.728 272.227Z" fill="#1D263A" stroke="#FFF6DE" stroke-width="2"/>
</svg>
